# xmcd CD database file
#
# Track frame offsets:
#	150
#	54578
#	118615
#	164068
#	217124
#	255781
#
# Disc length: 3555 seconds
#
# Revision: 0
# Processed by: cddbd v1.5.2PL0 Copyright (c) Steve Scherf et al.
# Submitted via: CDex 1.70beta2
#
DISCID=520de106
DTITLE=Bunky Green - The Salzau Quartet: Live at Jazz Baltica
DYEAR=2008
DGENRE=Jazz
TTITLE0=Tunex
TTITLE1=It Could Happen to You
TTITLE2=Little Girl I'll Miss You
TTITLE3=Another Place
TTITLE4=With All My Love
TTITLE5=Blues for Vienne
EXTD=YEAR: 2008
EXTT0=
EXTT1=
EXTT2=
EXTT3=
EXTT4=
EXTT5=
PLAYORDER=
